<?xml version="1.0" encoding="utf-8"?>
<!-- Svg Vector Icons : http://www.onlinewebfonts.com/icon -->
<!DOCTYPE svg PUBLIC "-//W3C//DTD SVG 1.1//EN" "http://www.w3.org/Graphics/SVG/1.1/DTD/svg11.dtd">
<svg version="1.1" xmlns="http://www.w3.org/2000/svg" xmlns:xlink="http://www.w3.org/1999/xlink" x="0px" y="0px" viewBox="0 0 1000 1000" enable-background="new 0 0 1000 1000" xml:space="preserve">
<metadata> Svg Vector Icons : http://www.onlinewebfonts.com/icon </metadata>
<g><g transform="translate(0.000000,511.000000) scale(0.100000,-0.100000)"><path d="M2124.4,4239.2c-95.7-35.1-124.9-62.5-171.8-150.3c-35.1-68.3-37.1-121-37.1-712.5c0-601.3,2-644.2,39-718.4c54.7-111.3,123-154.2,253.8-164c119.1-7.8,203,33.2,281.1,138.6c39,52.7,41,82,46.9,710.6c5.9,632.5,3.9,657.9-35.1,739.9C2430.9,4225.6,2270.8,4292,2124.4,4239.2z"/><path d="M7692.1,4249c-89.8-29.3-152.3-82-193.3-167.9c-39-80-41-109.3-35.1-737.9c5.8-628.6,7.8-657.9,46.8-710.6c78.1-105.4,162.1-146.4,281.1-138.6c130.8,9.8,199.1,52.7,253.8,164c37.1,74.2,39,115.2,39,722.3c0,628.6-1.9,644.2-44.9,718.4C7971.2,4219.7,7815.1,4288.1,7692.1,4249z"/><path d="M332.3,3257.3c-78.1-41-119.1-78.1-164-150.3l-58.6-95.7l-5.9-3361.7L100-3712l54.7-105.4c39-76.1,80-121,150.3-164l93.7-58.6H5000h4601.3l93.7,58.6c70.3,43,111.3,87.9,150.3,164L9900-3712l-3.9,3361.7l-5.9,3361.7l-58.6,95.7c-44.9,72.2-85.9,109.3-164,150.3l-107.4,52.7h-630.6h-630.6v-244c0-132.7-9.8-287-21.5-341.6c-33.2-152.3-124.9-271.4-273.3-349.4c-113.2-58.6-136.7-64.4-251.8-56.6c-206.9,15.6-372.9,126.9-454.9,308.4c-33.2,74.2-39,130.8-41,384.6l-1.9,298.7H4996.1H2735.5v-302.6c0-341.6-11.7-386.5-128.8-517.3c-99.6-109.3-205-160.1-359.2-171.8c-115.2-7.8-138.6-2-253.8,58.6c-93.7,48.8-142.5,89.8-189.4,158.1c-80,119.1-103.5,238.2-103.5,531v244h-630.6H439.7L332.3,3257.3z M9470.5-770.1v-2830.7H5000H529.5v2830.7v2830.7H5000h4470.5V-770.1z"/><path d="M1298.6,1535.5c-37.1-23.4-72.2-66.4-85.9-107.4c-31.2-95.7,3.9-197.2,85.9-247.9c56.6-35.1,107.4-37.1,896.1-37.1h837.5l66.4,66.4c89.8,89.8,93.7,197.2,9.8,288.9l-56.6,64.4l-847.3,5.8C1398.2,1572.5,1357.2,1570.6,1298.6,1535.5z"/><path d="M4109.8,1553c-70.3-27.3-124.9-115.2-124.9-199.1c0-62.5,13.7-91.7,66.4-144.5l66.4-66.4h831.6c925.3,0,925.3,0,980,126.9c42.9,105.4,11.7,199.1-89.8,269.4c-43,29.3-125,33.2-868.7,31.2C4519.8,1570.6,4131.3,1562.8,4109.8,1553z"/><path d="M6862.4,1535.5c-128.9-78.1-128.9-277.2,0-355.3c56.6-35.1,107.4-37.1,896-37.1h837.5l66.4,66.4c89.8,89.8,93.7,197.2,9.8,288.9l-56.6,64.4l-847.3,5.8C6962,1572.5,6921,1570.6,6862.4,1535.5z"/><path d="M1296.7,459.8c-89.8-54.7-121-164-72.2-263.5c58.6-126.9,64.4-126.9,968.3-126.9c771.1,0,808.2,2,870.7,39.1c121,74.2,136.7,222.5,35.1,324.1l-66.4,66.4h-837.5C1400.2,498.8,1355.3,496.9,1296.7,459.8z"/><path d="M4051.2,432.5c-52.7-52.7-66.4-82-66.4-144.5c0-87.8,48.8-164,132.7-197.2c39-15.6,283.1-21.5,876.5-17.6l823.8,5.9l56.6,54.7c72.2,68.3,89.8,150.3,54.7,238.2c-54.7,126.9-54.7,126.9-980,126.9h-831.6L4051.2,432.5z"/><path d="M6860.4,459.8c-136.7-82-123-300.6,21.5-361.2c56.6-23.4,210.8-29.3,874.6-29.3c771.1,0,808.2,2,870.7,39.1c121,74.2,136.7,222.5,35.1,324.1l-66.4,66.4h-837.5C6963.9,498.8,6919,496.9,6860.4,459.8z"/><path d="M1294.7-606.1c-115.2-80.1-125-232.3-21.5-331.9l58.6-56.6l804.3-5.8c888.2-5.9,927.3-2,989.8,99.6c60.5,97.6,50.8,181.6-27.3,259.7l-66.4,66.4h-847.3C1449-574.9,1333.8-578.8,1294.7-606.1z"/><path d="M4084.4-602.2c-95.7-52.7-130.8-212.8-68.3-302.6c68.3-95.7,105.4-99.6,948.8-99.6c886.3,0,890.2,0,958.5,140.6c31.3,62.5,33.2,83.9,13.7,142.5c-11.7,37.1-44.9,85.9-72.2,107.4c-48.8,37.1-76.1,39-892.1,39C4310.9-576.8,4121.5-582.7,4084.4-602.2z"/><path d="M6858.5-606.1c-115.2-80.1-125-232.3-21.5-331.9l58.6-56.6l804.3-5.8c888.3-7.8,927.3-2,989.8,99.6c60.5,97.6,50.8,181.6-27.3,259.7l-66.4,66.4h-847.3C7012.7-574.9,6897.5-578.8,6858.5-606.1z"/><path d="M1402.1-1648.6c-130.8-15.6-199.1-85.9-199.1-206.9c0-76.1,9.8-97.6,64.4-146.4l62.5-56.6h855.1c778.9,0,857,3.9,894.1,35.1c85.9,68.3,109.3,175.7,58.6,273.3c-52.7,101.5-62.5,103.5-880.4,107.4C1837.5-1640.8,1454.8-1642.7,1402.1-1648.6z"/><path d="M4187.9-1644.7c-103.5-15.6-128.8-29.3-164-87.9c-64.4-103.5-44.9-216.7,46.9-290.9c37.1-31.2,115.2-35.1,892.2-35.1c823.8,0,853.1,2,901.9,39c74.2,58.6,101.5,156.2,64.4,240.1c-54.7,134.7-37.1,130.8-913.6,136.7C4580.3-1640.8,4209.4-1640.8,4187.9-1644.7z"/><path d="M6917.1-1652.5c-91.8-25.4-150.3-103.5-150.3-205c0-74.2,9.8-95.6,64.4-144.5l62.5-56.6h855.1c778.9,0,857,3.9,894.1,35.1c85.9,68.3,109.3,175.7,58.6,273.3c-52.7,101.5-60.5,103.5-923.4,107.4C7334.8-1640.8,6946.3-1644.7,6917.1-1652.5z"/><path d="M1285-2743.7c-78.1-60.5-105.4-169.8-62.5-257.7c60.5-130.8,68.3-130.8,954.6-130.8c872.6,0,900,3.9,956.6,115.2c50.8,97.6,41,171.8-35.1,247.9l-66.4,66.4H2183C1357.2-2702.8,1333.8-2704.7,1285-2743.7z"/><path d="M4051.2-2769.1c-80-80-91.7-189.3-25.4-271.3c68.3-89.8,126.9-93.7,987.8-87.9l806.3,5.8l60.5,60.5c46.9,46.9,62.5,80.1,64.4,138.6c2,89.8-46.9,175.7-117.1,201.1c-29.3,11.7-400.2,19.5-880.4,19.5h-829.7L4051.2-2769.1z"/><path d="M6858.5-2734c-48.8-33.2-101.5-125-101.5-173.8c0-68.3,62.5-164,126.9-193.3c54.6-27.3,175.7-31.2,857-31.2c872.6,0,900,3.9,956.6,115.2c50.7,97.6,41,171.8-35.2,247.9l-66.4,66.4h-847.3C7012.7-2702.8,6897.5-2706.7,6858.5-2734z"/></g></g>
</svg>